<?xml version="1.0" encoding="UTF-8" standalone="no"?>
<svg
        width="32"
        height="32"
        version="1.1"
        id="svg6"
        sodipodi:docname="BNB_logo.svg"
        inkscape:version="1.2.1 (9c6d41e410, 2022-07-14, custom)"
        xmlns:inkscape="http://www.inkscape.org/namespaces/inkscape"
        xmlns:sodipodi="http://sodipodi.sourceforge.net/DTD/sodipodi-0.dtd"
        xmlns="http://www.w3.org/2000/svg"
>
  <defs
     id="defs10" />
  <sodipodi:namedview
     id="namedview8"
     pagecolor="#ffffff"
     bordercolor="#000000"
     borderopacity="0.25"
     inkscape:showpageshadow="2"
     inkscape:pageopacity="0.0"
     inkscape:pagecheckerboard="0"
     inkscape:deskcolor="#d1d1d1"
     showgrid="false"
     inkscape:zoom="23.21875"
     inkscape:cx="15.978466"
     inkscape:cy="15.978466"
     inkscape:window-width="1351"
     inkscape:window-height="1891"
     inkscape:window-x="0"
     inkscape:window-y="0"
     inkscape:window-maximized="0"
     inkscape:current-layer="svg6" />
  <g
     fill="none"
     id="g4"
     transform="matrix(1.6,0,0,1.6,-9.6,-9.6)">
    <path
       fill="#FFF"
       d="M 12.116,14.404 16,10.52 l 3.886,3.886 2.26,-2.26 L 16,6 9.856,12.144 Z M 6,16 8.26,13.74 10.52,16 8.26,18.26 Z m 6.116,1.596 3.884,3.884 3.886,-3.886 2.26,2.259 L 16,26 9.856,19.856 9.853,19.853 Z M 21.48,16 23.74,13.74 26,16 23.74,18.26 Z m -3.188,-0.002 h 0.002 V 16 L 16,18.294 13.709,16.004 13.705,16 13.709,15.997 14.11,15.595 14.305,15.4 16,13.706 l 2.293,2.293 z"
       id="path2" />
  </g>
</svg>
