<?xml version="1.0" encoding="utf-8"?>
<!-- Generator: Adobe Illustrator 24.1.1, SVG Export Plug-In . SVG Version: 6.00 Build 0)  -->
<svg version="1.1" id="Layer_1" xmlns="http://www.w3.org/2000/svg" xmlns:xlink="http://www.w3.org/1999/xlink" x="0px" y="0px"
	 viewBox="0 0 256 256" style="enable-background:new 0 0 256 256;" xml:space="preserve">
<style type="text/css">
	.st0{fill:#FFFFFF;}
</style>
<g id="Build_Ship_Icon">
	<path class="st0" d="M254.6,115.7c0-0.1,0-0.2-0.1-0.4c0,0,0-0.1-0.1-0.1c0,0-0.1-0.1-0.2-0.1c-2.8-0.7-5.7-1.4-8.6-2.1
		c-2.9-0.7-5.8-1.5-8.7-2.2c-0.1-0.4-0.2-0.7-0.3-1c-1.8-6.8-3.6-13.5-5.4-20.2c-0.2-0.8,0-1.3,0.6-1.9c3.5-3.4,7.1-6.8,10.6-10.2
		c0.5-0.5,1.1-1,1.5-1.4c-0.5-1.3-12.3-21.6-12.9-22.4c-5.7,1.6-11.5,3.3-17.1,4.9c-5.5-5.5-10.9-10.9-16.5-16.5
		c1.6-5.6,3.3-11.4,4.9-17.3c-7.4-4.3-14.8-8.5-22.2-12.8c-0.5,0.5-0.9,0.9-1.3,1.3c-3.5,3.6-7.1,7.3-10.6,10.9
		c-0.5,0.6-1,0.7-1.8,0.5c-6.3-1.7-12.6-3.4-18.8-5.1c-0.8-0.2-1.6-0.4-2.5-0.7c-1.5-5.9-2.9-11.7-4.4-17.5c-8.6,0-17.2,0-25.7,0
		c-1.5,5.8-2.9,11.6-4.4,17.4c-0.4,0.1-0.7,0.2-1.1,0.3c-6.7,1.8-13.4,3.6-20.1,5.4c-0.9,0.2-1.4,0.1-2-0.5
		c-3.6-3.8-7.3-7.5-10.9-11.3c-0.3-0.3-0.6-0.5-0.9-0.9c-7.4,4.3-14.8,8.5-22.2,12.8c0.8,3,1.7,5.8,2.5,8.7c0.8,2.9,1.6,5.8,2.5,8.7
		C53,47.6,47.5,53.1,42.1,58.5c-5.9-1.7-11.6-3.3-17.4-5c-4.3,7.4-8.6,14.8-12.8,22.2c0.4,0.4,0.8,0.8,1.2,1.2
		c3.6,3.5,7.3,7.1,10.9,10.6c0.6,0.6,0.8,1.1,0.6,2c-1.8,6.7-3.6,13.4-5.4,20.1c-0.1,0.4-0.2,0.7-0.4,1.1
		c-5.9,1.5-11.7,2.9-17.4,4.4c0,8.6,0,17.1,0,25.7c5.8,1.5,11.6,2.9,17.5,4.4c0.1,0.4,0.2,0.7,0.3,1.1c1.8,6.7,3.6,13.5,5.4,20.2
		c0.2,0.7,0.1,1.2-0.5,1.8c-2.7,2.6-5.4,5.2-8.2,7.9c-1.4,1.3-2.7,2.6-4,3.9c0.5,1.3,12.3,21.6,12.9,22.3c5.7-1.6,11.5-3.3,17-4.9
		c5.6,5.6,11,11,16.5,16.5c-0.5,1.8-1.1,3.7-1.6,5.6c-0.6,1.9-1.1,3.9-1.7,5.8c-0.5,1.9-1.2,3.8-1.6,5.8c7.4,4.3,14.8,8.5,22.2,12.8
		c0.3-0.3,0.6-0.5,0.8-0.8c3.7-3.8,7.3-7.6,11-11.4c0.6-0.6,1.1-0.8,2-0.6c6.7,1.8,13.4,3.6,20.1,5.4c0.4,0.1,0.7,0.2,1.1,0.4
		c0.8,3,1.5,6,2.3,9c0.7,2.8,1.4,5.7,2.2,8.5c8.6,0,17.2,0,25.8,0c0-0.3,0-0.6,0.1-0.9c1.3-5.2,2.6-10.4,3.9-15.7
		c0.1-0.3,0.2-0.6,0.3-0.9c0.4-0.1,0.7-0.2,1-0.3c6.8-1.8,13.5-3.6,20.2-5.4c0.8-0.2,1.3-0.1,1.9,0.5c3.6,3.8,7.2,7.5,10.8,11.2
		c0.3,0.3,0.7,0.7,1,1c7.5-4.3,14.8-8.6,22.2-12.8c-0.1-0.5-0.2-0.9-0.3-1.2c-1.4-5-2.9-10-4.3-15.1c-0.2-0.8-0.2-1.3,0.4-1.9
		c5-4.9,10-9.9,14.9-14.9c0.2-0.2,0.5-0.4,0.7-0.7c5.8,1.6,11.6,3.3,17.3,4.9c1.5-2.2,12.5-21.4,12.8-22.3
		c-4.3-4.1-8.6-8.3-12.9-12.5c0.1-0.3,0.1-0.6,0.2-0.9c1.2-4.5,2.4-8.9,3.6-13.4c0.6-2.3,1.3-4.6,1.8-7c0.2-0.9,0.6-1.2,1.5-1.4
		c5-1.2,9.9-2.5,14.8-3.7c0.5-0.1,1-0.3,1.5-0.4c0-0.3,0.1-0.4,0.1-0.6C254.6,132.1,254.6,123.9,254.6,115.7z M127.8,222.9
		c-52.4-0.1-95.3-43.1-94.7-96c0.5-51,42-93.8,94.9-93.9c52.3-0.1,94.9,42.3,95,95C222.7,181.5,179.3,223,127.8,222.9z"/>
	<path class="st0" d="M99.3,113.8c2.4-4.6,4.7-9.3,7.1-14l0.1-0.1c-5.2-5.2-10.4-10.4-15.6-15.6C88.7,82,88.7,82,88.3,79
		c-0.6-5.3,1.7-10.7,7.5-13.2c2.4-1,4.8-1.4,7.4-1.5c3,0,6,0.4,8.9,1.2c0.4,0.1,0.7,0.2,1.1,0.3c0.7,0.1,1-0.4,0.7-1
		c-0.1-0.3-0.3-0.5-0.5-0.7c-0.3-0.3-0.7-0.6-1.1-0.8c-2.3-1.4-4.7-2.5-7.3-3.5c-5.8-2.2-11.8-3.2-17.9-2.2
		c-6.3,1-11.8,3.7-16.4,8.2c-4.3,4.3-8.6,8.6-12.9,12.9c-0.6,0.6-0.9,1.2-0.9,2.1c-0.1,2.9-2.1,5.2-4.9,5.8
		c-0.5,0.1-1.1,0.2-1.6,0.2s-0.9,0.2-1.2,0.5c-1.4,1.4-2.8,2.8-4.2,4.2c-0.2,0.2-0.3,0.3-0.5,0.4c0,0.2,0,0.5,0,0.7
		c0.4,0.5,0.8,1,1.3,1.4c4.9,4.9,9.7,9.8,14.6,14.7c0.3,0.3,0.5,0.5,0.9,0.8c0.8,0.6,1.4,0.5,2.2-0.2c1-1,1.9-2,2.9-2.9
		s1.7-1.8,1.7-3.3c0-1.4,0.6-2.7,1.7-3.5c1.1-0.9,2.5-1.5,3.7-2.2C79,102.7,90,113.7,99.3,123c-0.3-1.4-0.5-2.9-0.8-4.3
		C98.2,117,98.5,115.3,99.3,113.8z"/>
	<path class="st0" d="M191.4,93.2c-4.3-1.1-8.5-2.2-12.8-3.3c-2.1-0.6-3.6-1.9-4.1-4.1c-1.1-4.3-2.2-8.7-3.3-13
		c-0.5-2.2,0-4.1,1.6-5.7c2-2,4.1-4.1,6.1-6.1c0.3-0.3,0.6-0.7,0.9-1c-1.1,0-2.1,0-3.2,0c-0.7,0.1-1.5,0.3-2.2,0.4
		c-13.3,2.2-22.8,14.5-21.3,28c0.1,1.4,0.4,2.7,0.6,4.2c-1.9,1.9-4.5,4.5-7.3,7.3l3.5,6.9l0.9,1.7c0.8,1.6,1.7,3.3,2.5,5
		c0.9,1.7,1.2,3.5,0.8,5.4c-0.3,1.5-0.5,3-0.8,4.5c5.5-5.5,11.1-11.1,14.4-14.4c0.4,0.2,0.8,0.3,1.1,0.4c4.1,1.7,8.3,2.3,12.6,1.8
		c7.6-0.9,13.6-4.5,18.1-10.7c2.6-3.5,4.2-7.5,4.5-11.9c0-0.2,0.1-0.4,0.2-0.6c0-1.1,0-2.1,0-3.2c-0.2,0.2-0.4,0.3-0.6,0.5
		c-2.1,2.1-4.2,4.2-6.3,6.3C195.6,93.2,193.7,93.7,191.4,93.2z"/>
	<path class="st0" d="M175.1,173.7l0.5,4.3l-4.2,1.1c-0.4,0.1-1.4,0.4-6.4,0.4c-1.4,0-3.3,0-4.4-0.2l-3.7-0.5l-0.6-3.7
		c-0.1-0.6-0.1-1.1-0.1-1.6l-3.2-1.8c0,1.1,0,2.3,0,3.4v1.4c0.3,0.3,0.4,0.4,0.4,0.4c7,7,14,14,21,21c0.2,0.2,0.3,0.3,0.5,0.5
		c2.6,2.4,6.5,2.5,9.1,0.1c2.1-2,4.2-4.1,6.2-6.2c1.5-1.5,2-3.4,1.7-5.5c-0.2-1.6-1-2.9-2.1-4c-5.2-5.1-10.3-10.3-15.5-15.5
		c0,0.1,0,0.2,0,0.3C174.6,169.7,174.9,171.7,175.1,173.7z"/>
	<path class="st0" d="M96.4,173.6c0,0.3,0,0.5,0,0.7v3.7l-3.6,1.1c-0.5,0.1-1.5,0.4-6.5,0.4c-3.3,0-4.2-0.2-4.5-0.2l-3.5-0.6
		l-0.6-3.5c-0.1-0.6-0.2-1,0.5-6.6c-4.6,4.6-9.2,9.2-13.7,13.7c-0.3,0.3-0.6,0.6-0.9,0.9c-2.2,2.6-2.1,6.4,0.2,8.9
		c2,2.1,4,4.1,6.1,6.1c1.2,1.2,2.7,1.7,4.4,1.8c2.1,0.1,3.8-0.8,5.2-2.2c6.7-6.7,13.4-13.4,20.1-20.1v-5.8
		C98.5,172.4,97.5,173,96.4,173.6z"/>
	<path class="st0" d="M147.1,130.1c0.7-4,1.4-8.1,2.1-12.1c0.1-0.8,0-1.5-0.3-2.2c-1.2-2.2-2.3-4.5-3.5-6.8
		c-6.2-12.2-12.4-24.5-18.6-36.7c-0.1-0.2-0.3-0.4-0.4-0.7c-0.3,0.5-0.4,0.8-0.6,1.1c-4.6,9.1-9.3,18.3-13.9,27.4
		c-2.7,5.3-5.4,10.6-8.1,15.9c-0.3,0.6-0.4,1.1-0.3,1.7c0.7,4,1.4,7.9,2.1,11.9c0.1,0.4,0.1,0.8,0.1,1.2c-2.5,1.6-13.2,7.4-14.1,7.6
		c-0.2-1.3,0.1-2.6-0.2-3.9c-1.2,0-2.4,0-3.6,0c-0.3,1.5-5.2,38.8-5,39.8c0.5,0.1,2,0.1,3.7,0.1c2.2,0,4.6-0.1,5.1-0.2
		c0-0.9,0-1.9,0-2.8c0-0.6,0.2-1,0.7-1.3c3.9-2.1,7.9-4.3,11.8-6.4c0.2-0.1,0.4-0.1,0.6-0.2c0,0.1,0,0.1,0,0.2c0,5,0,10,0,15.1
		c0,0.1,0,0.2,0,0.3c0,0,0,0.1,0.1,0.1c0,0,0.1,0.1,0.1,0.2c0.3,0,0.7,0,1.1,0c1,0,1.9,0,2.9,0c0.7,0,1.5,0,2.2,0c0,0,0,0,0.1,0
		c0.5,0,1,0.1,1.4,0.5c0.9,0.8,1.9,1.6,2.8,2.3c0.6,0.5,1,1,1.4,1.7c3,5.2,6,10.4,9,15.6c0.2,0.3,0.3,0.7,0.7,1
		c0.2-0.4,0.4-0.7,0.6-1c2.4-4.2,4.8-8.4,7.2-12.6c0.8-1.3,1.4-2.8,2.4-3.9c1-1.2,2.4-2,3.6-3.1c0,0,0.1,0,0.1-0.1
		c0.4-0.4,0.8-0.5,1.3-0.5c0,0,0,0,0.1,0c0.8,0,1.5,0,2.3,0c0.9,0,1.8,0,2.8,0c0.4,0,0.7,0,1.2-0.1c0-0.5,0-1,0-1.4
		c0-4.4,0-8.7,0-13.1c0-0.4,0-0.8,0.1-1.4c4.5,2.5,8.8,4.8,13.1,7.2c0.1,1.3-0.1,2.6,0.1,3.8c0.7,0.1,2.2,0.1,3.8,0.1
		c2.2,0,4.5-0.1,5.1-0.2c-0.8-6.6-1.7-13.2-2.5-19.8c-0.9-6.6-1.7-13.3-2.6-19.9c-1.3,0-2.5,0-3.8,0c0,1.4,0,2.6,0,3.9
		c-0.9-0.3-13.1-6.9-14.2-7.7C147,130.6,147,130.4,147.1,130.1z"/>
</g>
</svg>
