<svg width="21" height="21" viewBox="0 0 21 21" fill="none" xmlns="http://www.w3.org/2000/svg">
<g clip-path="url(#clip0_714_4850)">
<path d="M10.5 0C7.71523 0 5.04451 1.10625 3.07538 3.07538C1.10625 5.04451 0 7.71523 0 10.5C0 13.2848 1.10625 15.9555 3.07538 17.9246C5.04451 19.8938 7.71523 21 10.5 21C13.2848 21 15.9555 19.8938 17.9246 17.9246C19.8938 15.9555 21 13.2848 21 10.5C21 7.71523 19.8938 5.04451 17.9246 3.07538C15.9555 1.10625 13.2848 0 10.5 0V0ZM10.5 19.0312C8.23737 19.0312 6.06742 18.1324 4.4675 16.5325C2.86758 14.9326 1.96875 12.7626 1.96875 10.5C1.96875 8.23737 2.86758 6.06742 4.4675 4.4675C6.06742 2.86758 8.23737 1.96875 10.5 1.96875C12.7626 1.96875 14.9326 2.86758 16.5325 4.4675C18.1324 6.06742 19.0312 8.23737 19.0312 10.5C19.0312 12.7626 18.1324 14.9326 16.5325 16.5325C14.9326 18.1324 12.7626 19.0312 10.5 19.0312Z" fill="#17CFFC"/>
<path d="M13.7812 5.25L10.5 8.53125L7.21875 5.25L5.25 7.21875L8.53125 10.5L5.25 13.7812L7.21875 15.75L10.5 12.4688L13.7812 15.75L15.75 13.7812L12.4688 10.5L15.75 7.21875L13.7812 5.25Z" fill="#17CFFC"/>
</g>
<defs>
<clipPath id="clip0_714_4850">
<rect width="21" height="21" fill="white"/>
</clipPath>
</defs>
</svg>
