<svg xmlns="http://www.w3.org/2000/svg" viewBox="0 0 20 23.5"><defs><style>.cls-1{fill:#fff;}</style></defs><g id="Layer_2" data-name="Layer 2"><g id="Layer_1-2" data-name="Layer 1"><path class="cls-1" d="M10.64,0c.33.09.67.15,1,.27a3.4,3.4,0,0,1,1.94,2.3,8.62,8.62,0,0,1,.37,2.37c0,.49.05,1,.09,1.48a3.78,3.78,0,0,0,.68,1.8c.87,1.28,1.73,2.56,2.55,3.87a6.71,6.71,0,0,1,.66,1.5,4.87,4.87,0,0,1,0,2.65.38.38,0,0,0,.09.39,1.48,1.48,0,0,1,.4,1.06,1.37,1.37,0,0,0,.86,1.36l.17.08a.81.81,0,0,1,.14,1.5c-.15.11-.32.2-.48.3-.91.54-1.82,1.07-2.72,1.62a7.69,7.69,0,0,0-.63.53,1.9,1.9,0,0,1-1.82.31,1.66,1.66,0,0,1-.81-.74.48.48,0,0,0-.27-.2,12.2,12.2,0,0,0-5.07.05.29.29,0,0,0-.19.14,1.41,1.41,0,0,1-1.47.68,4,4,0,0,1-.91-.21A18.63,18.63,0,0,0,1.11,22a2.36,2.36,0,0,1-.75-.28A.6.6,0,0,1,0,21c0-.12.07-.23.11-.35a2.48,2.48,0,0,0,.08-1.7c-.21-.65,0-1,.69-1.19.34-.09.68-.18,1-.3a1.51,1.51,0,0,0,.72-.67,7.57,7.57,0,0,1,.49-.63.22.22,0,0,0,0-.19,2.27,2.27,0,0,1,.2-1.49c.33-.77.63-1.57.92-2.36a8.06,8.06,0,0,1,1.26-2.3c.28-.36.53-.75.83-1.1a2.17,2.17,0,0,0,.52-1.52c0-.85-.09-1.69-.11-2.54a18.46,18.46,0,0,1,0-2A2.67,2.67,0,0,1,8.91.23c.31-.1.63-.16.95-.23ZM7,19.8c.29.34.57.67.86,1a.41.41,0,0,0,.28.15c.6,0,1.19,0,1.79,0a4.55,4.55,0,0,0,3.43-1.77.6.6,0,0,0,.12-.32c0-.69.06-1.38.1-2.07a.39.39,0,0,1,.41-.43,3.43,3.43,0,0,1,.56,0,6.13,6.13,0,0,0-.09-3.5c-.5-1.38-1.05-2.73-1.61-4.09-.21-.52-.5-1-.75-1.52a.22.22,0,0,0-.33-.12l-1,.49c-.46.24-.91.49-1.38.72a.72.72,0,0,1-.64,0A2.65,2.65,0,0,1,8.19,8c-.27-.22-.53-.46-.79-.68a3.64,3.64,0,0,1-.76,2.3,4.9,4.9,0,0,0-.44.85c-.3.72-.53,1.47-.87,2.17a5.82,5.82,0,0,0-.64,2.06,2.24,2.24,0,0,0,.7,2.1c.11.09.21.19.32.27.46.38.93.74,1.38,1.14a1.74,1.74,0,0,1,.45.56C7.73,19.2,7.51,19.55,7,19.8Zm-6.18,1c0,.32,0,.41.27.48a3.81,3.81,0,0,0,.51.12,12.08,12.08,0,0,1,2.89.76A8.7,8.7,0,0,0,6,22.64a.53.53,0,0,0,.43-.06c.65-.47,1-1,.45-1.79-.28-.43-.62-.82-.9-1.25-.4-.6-.74-1.25-1.15-1.84a5.51,5.51,0,0,0-.9-1c-.23-.2-.44-.13-.61.14s-.23.41-.34.62a.92.92,0,0,1-.64.51l-.91.22c-.43.13-.51.26-.44.7,0,0,0,0,0,.07A2.21,2.21,0,0,1,.9,20.36,4.52,4.52,0,0,0,.77,20.83Zm13.85-3.75c-.29-.08-.42,0-.42.27a11,11,0,0,1,.05,1.28c-.07.8-.21,1.59-.33,2.38a1.77,1.77,0,0,0,.16,1.26.74.74,0,0,0,1,.36,3.4,3.4,0,0,0,.86-.55A7,7,0,0,1,17.49,21l1.09-.58a3.3,3.3,0,0,0,.51-.31q.27-.2,0-.42a2.83,2.83,0,0,0-.51-.34,1.31,1.31,0,0,1-.76-1,5.6,5.6,0,0,1-.07-.59.63.63,0,0,0-.25-.49c0,.05-.06.08-.08.12a1.89,1.89,0,0,1-1.42,1,1,1,0,0,1-1.39-1.07C14.63,17.3,14.62,17.18,14.62,17.08ZM9.22,7.83a3.69,3.69,0,0,0,.4-.16c.52-.29,1-.58,1.55-.88.12-.08.29-.22.29-.33s-.19-.22-.29-.34a.2.2,0,0,0-.08,0L9.55,5.5A.52.52,0,0,0,9,5.56c-.43.31-.85.63-1.25,1a.32.32,0,0,0,0,.3A2.92,2.92,0,0,0,9,7.8,2.23,2.23,0,0,0,9.22,7.83Zm1.14-2.61a4.4,4.4,0,0,1,.06-.73A.53.53,0,0,1,11,4.06a.55.55,0,0,1,.51.42.91.91,0,0,1-.26,1.07c.17.17.32.13.46,0a1.63,1.63,0,0,0,.09-2,1,1,0,0,0-1.64,0,1.57,1.57,0,0,0-.28,1.13C9.89,5.07,10,5.14,10.36,5.22Zm-1.94,0A4.21,4.21,0,0,0,8.82,5a.23.23,0,0,0,.08-.12,1.52,1.52,0,0,0-.3-1.3.68.68,0,0,0-1.13,0,1.75,1.75,0,0,0,0,2c.25.35.34.35.63,0a.89.89,0,0,1-.53-1.11c0-.17.15-.36.34-.35a.73.73,0,0,1,.41.24A1,1,0,0,1,8.42,5.24Z"/></g></g></svg>