<svg width="25" height="21" viewBox="0 0 25 21" fill="none" xmlns="http://www.w3.org/2000/svg">
<path d="M13.9724 19.8332H4.09739C3.83591 19.8402 3.57543 19.803 3.33141 19.7238C3.0874 19.6446 2.86484 19.525 2.67696 19.372C2.48909 19.2191 2.33973 19.036 2.23778 18.8337C2.13583 18.6313 2.08336 18.4138 2.0835 18.194V2.83485C2.1034 2.38713 2.33393 1.96432 2.7245 1.65921C3.11507 1.35409 3.63379 1.19159 4.16683 1.20735H14.0418C14.2975 1.20254 14.5517 1.24139 14.789 1.32155C15.0262 1.40171 15.2417 1.52151 15.4222 1.67369C15.6027 1.82587 15.7445 2.00725 15.8391 2.20685C15.9337 2.40644 15.979 2.62009 15.9724 2.83485V18.194C15.9715 18.4125 15.9188 18.6287 15.8174 18.8299C15.716 19.0311 15.5679 19.2134 15.3817 19.366C15.1955 19.5186 14.975 19.6385 14.733 19.7187C14.491 19.7989 14.2325 19.8378 13.9724 19.8332ZM4.09739 2.33318C4.01689 2.33084 3.93665 2.34205 3.86139 2.36614C3.78612 2.39023 3.71735 2.42672 3.65912 2.47346C3.60089 2.5202 3.55437 2.57625 3.5223 2.63831C3.49024 2.70037 3.47326 2.7672 3.47239 2.83485V18.194C3.47239 18.3286 3.53604 18.4577 3.64934 18.5529C3.76264 18.648 3.91632 18.7015 4.07655 18.7015H13.9724C14.1386 18.7034 14.2994 18.6519 14.422 18.5576C14.5446 18.4633 14.6197 18.3333 14.6321 18.194V2.83485C14.6181 2.69664 14.5422 2.56804 14.4198 2.47495C14.2974 2.38186 14.1375 2.3312 13.9724 2.33318H4.09739Z" fill="white"/>
<path d="M20.5068 19.8333C20.1858 19.8356 19.8675 19.7845 19.5702 19.6829C19.273 19.5813 19.0025 19.4313 18.7746 19.2415C18.5467 19.0517 18.3658 18.8258 18.2424 18.577C18.1189 18.3281 18.0554 18.0612 18.0554 17.7916V13.4166C18.0554 13.1072 17.9091 12.8104 17.6486 12.5916C17.3881 12.3728 17.0349 12.2499 16.6665 12.2499H15.6734C15.4893 12.2499 15.3126 12.1885 15.1824 12.0791C15.0522 11.9697 14.979 11.8213 14.979 11.6666C14.979 11.5119 15.0522 11.3635 15.1824 11.2541C15.3126 11.1447 15.4893 11.0833 15.6734 11.0833H16.6665C17.4032 11.0833 18.1098 11.3291 18.6307 11.7667C19.1516 12.2043 19.4443 12.7977 19.4443 13.4166V17.7916C19.4443 18.0236 19.554 18.2462 19.7494 18.4103C19.9447 18.5744 20.2097 18.6666 20.4859 18.6666C20.7622 18.6666 21.0272 18.5744 21.2225 18.4103C21.4179 18.2462 21.5276 18.0236 21.5276 17.7916V10.0916L19.354 6.00825C19.2241 5.7807 19.0202 5.58871 18.7658 5.4545C18.5114 5.32029 18.2169 5.24936 17.9165 5.24992H17.4096C17.2254 5.24992 17.0487 5.18846 16.9185 5.07906C16.7883 4.96967 16.7151 4.8213 16.7151 4.66659C16.7151 4.51188 16.7883 4.3635 16.9185 4.25411C17.0487 4.14471 17.2254 4.08325 17.4096 4.08325H17.9165C18.4939 4.083 19.059 4.22338 19.5434 4.48739C20.0278 4.7514 20.4107 5.12771 20.6457 5.57075L22.8748 9.74742C22.9156 9.82253 22.9369 9.90405 22.9373 9.98659V17.7916C22.9373 18.3331 22.6813 18.8524 22.2254 19.2353C21.7696 19.6181 21.1514 19.8333 20.5068 19.8333Z" fill="white"/>
<path d="M12.5002 5.24992H5.55577C5.37159 5.24992 5.19496 5.18846 5.06473 5.07906C4.93449 4.96967 4.86133 4.82129 4.86133 4.66659C4.86133 4.51188 4.93449 4.3635 5.06473 4.25411C5.19496 4.14471 5.37159 4.08325 5.55577 4.08325H12.5002C12.6844 4.08325 12.861 4.14471 12.9913 4.25411C13.1215 4.3635 13.1947 4.51188 13.1947 4.66659C13.1947 4.82129 13.1215 4.96967 12.9913 5.07906C12.861 5.18846 12.6844 5.24992 12.5002 5.24992Z" fill="white"/>
<path d="M12.5002 7.58341H5.55577C5.37159 7.58341 5.19496 7.52196 5.06473 7.41256C4.93449 7.30316 4.86133 7.15479 4.86133 7.00008C4.86133 6.84537 4.93449 6.697 5.06473 6.5876C5.19496 6.47821 5.37159 6.41675 5.55577 6.41675H12.5002C12.6844 6.41675 12.861 6.47821 12.9913 6.5876C13.1215 6.697 13.1947 6.84537 13.1947 7.00008C13.1947 7.15479 13.1215 7.30316 12.9913 7.41256C12.861 7.52196 12.6844 7.58341 12.5002 7.58341Z" fill="white"/>
<path d="M17.3609 7.04655C17.1768 7.04655 17.0001 6.98509 16.8699 6.8757C16.7397 6.7663 16.6665 6.61793 16.6665 6.46322V2.96322C16.6665 2.80851 16.7397 2.66013 16.8699 2.55074C17.0001 2.44134 17.1768 2.37988 17.3609 2.37988C17.5451 2.37988 17.7218 2.44134 17.852 2.55074C17.9822 2.66013 18.0554 2.80851 18.0554 2.96322V6.46322C18.0554 6.61793 17.9822 6.7663 17.852 6.8757C17.7218 6.98509 17.5451 7.04655 17.3609 7.04655Z" fill="white"/>
</svg>
