<svg width="23" height="22" viewBox="0 0 23 22" fill="none" xmlns="http://www.w3.org/2000/svg">
<path fill-rule="evenodd" clip-rule="evenodd" d="M15.8456 11.6062C15.8456 11.6062 17.7129 14.3108 19.5515 15.173C20.9775 15.8357 19.3948 19.837 18.6329 21.5612C18.4159 22.048 18.1197 22.0342 17.8107 21.619C17.2242 20.8311 16.0569 19.2058 14.214 19.2058H7.38016C5.53585 19.2058 4.3686 20.8311 3.78354 21.619C3.47448 22.0342 3.17548 22.048 2.96129 21.5612C2.19942 19.8356 0.616728 15.8357 2.04129 15.173C3.88129 14.3108 5.7486 11.6062 5.7486 11.6062H15.8456Z" fill="#4BFFFF"/>
<path fill-rule="evenodd" clip-rule="evenodd" d="M16.0886 12.4602C15.5682 8.20321 13.8001 1.45746 11.6094 0.105832C11.3523 0.0757946 11.0936 0.0601846 10.8346 0.059082C10.5701 0.059082 10.3142 0.076957 10.0569 0.105832C7.86611 1.45746 6.09655 8.20458 5.57761 12.4602C5.47699 13.2907 5.42236 14.0318 5.42236 14.6121C5.42236 16.709 6.1253 18.249 7.23361 19.228H14.4355C15.5438 18.2476 16.2467 16.709 16.2467 14.6121C16.2354 13.8926 16.1826 13.1742 16.0886 12.4602ZM10.7814 5.49996C11.0646 5.50005 11.3451 5.5535 11.6067 5.65727C11.8684 5.76104 12.1061 5.91309 12.3064 6.10474C12.5066 6.29638 12.6654 6.52388 12.7737 6.77423C12.882 7.02458 12.9377 7.29289 12.9376 7.56383C12.9375 7.83477 12.8816 8.10304 12.7731 8.35333C12.6647 8.60361 12.5057 8.831 12.3053 9.02252C12.105 9.21404 11.8671 9.36594 11.6054 9.46954C11.3437 9.57314 11.0632 9.62642 10.7799 9.62633C10.2079 9.62615 9.6593 9.4086 9.25493 9.02155C8.85055 8.6345 8.62349 8.10965 8.62368 7.56246C8.62387 7.01527 8.8513 6.49056 9.25595 6.10376C9.66059 5.71697 10.2093 5.49977 10.7814 5.49996Z" fill="#4BFFFF"/>
</svg>
