<svg width="880" height="538" viewBox="0 0 880 538" fill="none" xmlns="http://www.w3.org/2000/svg">
<path d="M880 163.935V29.6091L864.29 13.806H741.738L738.874 17.1924H700.511L692.613 24.573H572.23L552.701 44.1097H327.733L310.027 26.4832H232.694L224.882 18.6685H143.123L138.349 13.806H127.066L113.266 0H44.4383L30.5513 13.806H15.0153L1.73587 27.091V157.51L13.019 168.537V185.296L2.25663 196.063V223.935L13.1058 234.789V314.586L0 327.61V351.402L12.5851 363.992V379.622L0.781142 391.517V524.368L14.4077 538H135.658L145.9 529.057H307.77L315.929 520.894H559.298L567.804 529.491H730.802L739.308 538H864.985L878.438 524.541V393.515L871.841 386.915V367.379L878.351 360.953V327.871L869.324 318.927V237.828L879.132 228.016V196.236L871.668 188.769V170.969L880 163.935Z" fill="black" fill-opacity="0.25"/>
<g opacity="0.65">
<path d="M880 163.935V29.6091L864.204 13.806H741.738L738.874 17.1924H700.511L692.613 24.4861H572.23L552.615 44.1097H327.733L310.027 26.3964H232.694L224.882 18.5817H143.123L138.349 13.806H127.066L113.266 0H44.4383L30.5513 13.806H14.9285L1.73587 27.091V157.51L13.019 168.537V185.209L2.25663 196.063V224.022L13.1058 234.876V314.586L0 327.61V351.402L12.5851 363.992V379.622L0.781142 391.517V524.368L14.4077 538H135.658L145.9 528.97H307.77L315.842 520.894H559.211L567.804 529.491H730.802L739.308 538H864.985L878.438 524.541V393.515L871.841 386.915V367.379L878.351 360.866V327.871L869.411 318.927V237.828L879.219 228.016V196.236L871.755 188.769V170.969L880 163.935ZM701.118 18.6685H737.745L732.885 24.573H694.869L701.118 18.6685ZM576.309 40.6365H625.261L636.197 29.6959H756.319L764.217 37.5975H793.293L800.757 30.1301H850.056L864.551 44.6307V167.669L855.351 158.465V111.577L847.713 103.936V65.991L827.403 45.6727H571.275L576.309 40.6365ZM864.551 169.666V181.128H857.173V187.814L847.626 178.262V105.933L853.788 112.098V158.986L864.551 169.666ZM224.275 20.0578L230.611 26.3964H150.934L144.598 20.0578H224.275ZM45.0459 1.47611H112.658L125.07 13.8928H32.6344L45.0459 1.47611ZM30.1174 29.6959H76.8991L85.5785 38.379H113.266L120.903 30.7379H242.414L253.264 41.5917H299.611L303.777 45.7595H82.1067L67.7858 32.6482H27.1664L30.1174 29.6959ZM15.1889 44.5439L25.6909 34.0374H67.1782L79.9369 45.6727H54.7667L36.9741 63.5597V109.319L26.5588 117.134V154.645L15.1889 166.019V44.5439ZM15.3625 181.128V167.93L28.0343 155.252V117.915L36.9741 111.143V170.969L26.8192 181.128H15.3625ZM31.4193 200.404L38.7099 207.698V286.453L27.6004 297.567V350.968L23.8682 347.234V208.045L31.4193 200.404ZM15.0153 380.664V370.505H28.7287L39.4043 381.185V445.179L28.4683 434.498V394.991L14.5813 381.098L15.0153 380.664ZM302.823 511.083H256.041L243.196 523.934H120.73L110.401 513.601H84.6237L75.5104 522.805H26.6456L13.8002 509.954V382.313L26.9928 395.512V435.019L39.4043 447.176V492.761L52.3365 505.699H308.204L302.823 511.083ZM318.966 517.855L321.397 515.424H553.743L556.173 517.855H318.966ZM324.521 512.298L327.212 509.607H547.841L550.532 512.298H324.521ZM563.898 496.408H513.644L504.705 505.352H376.944L368.525 496.929H316.97L309.593 504.31H52.9441L40.8798 492.241V380.577L30.8117 370.505H35.2382V358.609L28.9891 352.357V298.088L40.0986 286.974V207.09L32.4608 199.449L34.3703 197.539V181.128H28.8155L38.3628 171.577V64.1675L55.3743 47.1488H305.166L315.061 57.0475H367.137L375.99 46.541H500.365L508.871 55.9187H561.034L569.8 47.1488H826.795L846.237 66.5988V178.87L857.173 189.811V197.712V346.366L844.935 358.609V369.376L839.728 376.583V489.722L827.49 501.965V503.615H571.188L563.898 496.408ZM846.932 370.331V491.546L834.781 503.702H828.965V502.66L841.203 490.417V377.104L846.064 370.331H846.932ZM866.2 509.78L851.271 524.715H805.705L794.335 513.34H767.863L759.01 522.197H637.325L627.691 512.559H580.041L572.664 505.178H800.931L807.961 512.211H842.766L857.868 497.103V478.174L848.407 468.71V400.114L866.2 417.914V509.78Z" fill="#00FFFF"/>
<path d="M35.5853 491.285V451.517L24.6493 440.576V400.461L16.6643 392.473V457.595L27.6003 469.144V473.659L16.6643 462.024V476.785L27.6003 488.42V492.848L16.6643 481.213V495.974L27.6003 507.609V512.038L16.6643 500.489V508.478L27.4267 519.245H71.9518L82.0199 509.259H50.9478L35.5853 491.285Z" fill="#00FFFF"/>
<path d="M488.214 25.9622H444.991V29.5223H488.214V25.9622Z" fill="#00FFFF"/>
<path d="M488.214 30.9984H444.991V40.5497H488.214V30.9984Z" fill="#00FFFF"/>
<path d="M563.464 25.9622H494.897V29.4354H559.905L563.464 25.9622Z" fill="#00FFFF"/>
<path d="M558.343 30.9984H494.897V40.6366H548.796L558.343 30.9984Z" fill="#00FFFF"/>
<path d="M438.308 30.9984H395.084V40.5497H438.308V30.9984Z" fill="#00FFFF"/>
<path d="M438.308 25.9622H395.084V29.5223H438.308V25.9622Z" fill="#00FFFF"/>
<path d="M388.314 29.4354V25.9622H319.834L322.698 29.4354H388.314Z" fill="#00FFFF"/>
<path d="M388.314 40.6366V30.9984H323.914L331.725 40.6366H388.314Z" fill="#00FFFF"/>
<path d="M631.336 506.828L646.959 519.071H658.416L642.706 506.828H631.336Z" fill="#00FFFF"/>
<path d="M650.691 506.828L666.401 519.071H677.771L662.061 506.828H650.691Z" fill="#00FFFF"/>
<path d="M670.046 506.828L685.756 519.071H697.126L681.416 506.828H670.046Z" fill="#00FFFF"/>
<path d="M230.524 519.071L246.233 506.828H234.777L219.154 519.071H230.524Z" fill="#00FFFF"/>
<path d="M211.169 519.071L226.878 506.828H215.422L199.712 519.071H211.169Z" fill="#00FFFF"/>
<path d="M207.437 506.828H196.067L180.357 519.071H191.814L207.437 506.828Z" fill="#00FFFF"/>
</g>
</svg>
