<?xml version="1.0" encoding="utf-8"?>
<!-- Generator: Adobe Illustrator 24.1.1, SVG Export Plug-In . SVG Version: 6.00 Build 0)  -->
<svg version="1.1" id="Layer_1" xmlns="http://www.w3.org/2000/svg" xmlns:xlink="http://www.w3.org/1999/xlink" x="0px" y="0px"
	 viewBox="0 0 1200 1200" style="enable-background:new 0 0 1200 1200;" xml:space="preserve">
<style type="text/css">
	.st0{opacity:0.25;}
	.st1{fill:#81D3EB;}
</style>
<polygon class="st0" points="1107,321.9 1107,107.8 1088.8,89.6 947.6,89.6 944.3,93.5 900.2,93.5 891.1,101.9 752.4,101.9 
	729.8,124.5 470.6,124.5 450.2,104.2 361.1,104.2 352.1,95.2 257.9,95.2 252.4,89.6 239.5,89.6 223.5,73.7 144.2,73.7 128.3,89.6 
	110.3,89.6 95,104.9 95,314.5 108,327.2 108,346.4 95.6,358.8 95.6,651.5 108.1,664 108.1,869 93,884 93,911.4 107.6,925.9 
	107.6,943.9 93.9,957.6 93.9,1110.6 109.6,1126.3 249.3,1126.3 261.2,1116 447.7,1116 457,1106.6 737.4,1106.6 747.3,1116.5 
	935,1116.5 944.8,1126.3 1089.6,1126.3 1105.1,1110.8 1105.1,959.9 1097.5,952.3 1097.5,929.8 1105,922.4 1105,884.3 1094.7,874 
	1094.7,597.5 1106,586.2 1106,359.1 1097.3,350.5 1097.3,330 "/>
<g>
	<g>
		<g>
			<path class="st1" d="M1089.6,1126.3H944.8l-9.8-9.8H747.3l-23-23H470.1l-22.4,22.4H261.2l-11.8,10.4H109.6l-15.7-15.7v-153
				l13.7-13.7v-18L93,911.4V884l15.1-15.1V664l-12.5-12.5V358.8l12.4-12.4v-19.2l-13-12.7V104.9l15.3-15.3h142.1l14.5,14.5h183.3
				l20.4,20.4h259.2l22.6-22.6h184.9l10.3-12.3h141.2l18.2,18.2v214.2l-9.6,8.1v20.5l8.6,8.6v227.1l-11.3,11.3V874l10.3,10.3v38
				l-7.5,7.5v22.5l7.6,7.6v150.9L1089.6,1126.3z M946,1123.6h142.5l13.9-13.9V961.1l-7.6-7.6v-24.8l7.5-7.5v-35.7l-10.3-10.3V596.4
				l11.3-11.3V360.3l-8.6-8.6v-22.9l9.6-8.1V108.9l-16.5-16.6H948.9l-10.3,12.3H753.5l-22.6,22.6H469.5l-20.4-20.4H265.8l-14.5-14.5
				H111.5L97.8,106v207.3l13,12.7v21.5L98.4,360v290.4l12.5,12.5v207.2l-15.1,15.1v25.1l14.5,14.5v20.3l-13.7,13.7v150.7l14.1,14.1
				h137.5l11.8-10.4h186.4l22.4-22.4h256.5l23,23h187.8L946,1123.6z"/>
		</g>
		<g>
			<polygon class="st1" points="527.4,125.9 516,139.3 456.1,139.3 438.3,121.5 384.9,121.5 372.3,109 232.4,109 223.5,117.8 
				191.6,117.8 181.7,107.8 127.7,107.8 110.6,125 110.6,326.6 96.4,312.5 96.4,105.5 110.9,91 251.8,91 266.4,105.5 449.7,105.5 
				470,125.9 			"/>
		</g>
		<g>
			<polygon class="st1" points="120.5,906.6 120.5,372.7 132.7,360.5 132.7,341.6 109.4,341.6 109.4,347 109.4,347 97,359.4 97,651 
				109.5,663.5 109.7,662.8 110.2,868.5 94.4,884.6 94.4,909.8 108.9,925.4 108.9,933.4 133.6,933.4 133.6,919.7 			"/>
		</g>
		<g>
			<polygon class="st1" points="108.9,944.5 108.9,1094 123.7,1108.8 180,1108.8 190.5,1098.2 220.2,1098.2 232.1,1110.1 
				373.3,1110.1 388.1,1095.3 442,1095.3 458.3,1079 517.6,1079 527.3,1088.7 674.5,1088.7 684.8,1078.4 742.7,1078.4 761.3,1097 
				816.2,1097 827.3,1108.1 967.5,1108.1 977.7,1097.9 1008.2,1097.9 1021.3,1111.1 1073.8,1111.1 1091,1093.9 1091,930.9 
				1096.2,930.9 1096.2,952.9 1103.7,960.5 1103.7,1110.3 1089,1124.9 945.4,1124.9 935.6,1115.1 747.8,1115.1 724.9,1092.2 
				469.5,1092.2 447.1,1114.6 260.6,1114.6 248.8,1124.9 110.2,1124.9 95.3,1110 95.3,958.2 			"/>
		</g>
		<g>
			<polyline class="st1" points="1080.7,341.7 1089.2,341.7 1089.2,125 1072.4,108.3 1015.7,108.3 1007,116.9 973.6,116.9 
				964.5,107.8 826.1,107.8 813.5,120.5 757,120.5 739.4,138.1 679.3,138.1 668.3,125.9 730.4,125.9 752.9,103.3 938,103.3 
				948.3,91 1088.2,91 1105.6,108.4 1105.6,321.3 1095.9,329.4 1095.9,351 1104.6,359.7 1104.6,585.6 1093.3,596.9 1093.3,874.6 
				1103.6,884.9 1103.6,921.8 1096.2,929.2 1094.3,933.2 1066.6,933.2 1066.6,919.8 1080.7,905.6 1080.7,360.8 			"/>
		</g>
		<g>
			<polygon class="st1" points="117,350.9 115.9,349.7 135.6,329.9 135.6,146.9 156.2,126.3 459.6,126.3 459.6,128 156.9,128 
				137.3,147.6 137.3,330.6 			"/>
		</g>
		<g>
			<polygon class="st1" points="110,327.2 108.8,326 123.7,311.2 123.7,268 136,258.7 137,260 125.3,268.8 125.3,311.9 			"/>
		</g>
		<g>
			<polygon class="st1" points="186.8,127.8 170.5,112.9 113.8,112.9 113.8,111.2 171.1,111.2 187.9,126.5 			"/>
		</g>
		<g>
			<polygon class="st1" points="458.9,1089.1 153.3,1089.1 138.4,1074.2 138.4,945.7 124.2,931.5 125.4,930.3 140.1,945 
				140.1,1073.5 154,1087.5 458.9,1087.5 			"/>
		</g>
		<g>
			<polygon class="st1" points="138.7,1021.9 124.2,1007.7 124.2,962.3 107.7,945.8 108.8,944.6 125.8,961.6 125.8,1007 
				139.8,1020.8 			"/>
		</g>
		<g>
			<polygon class="st1" points="1093,990 1069.9,966.9 1069.9,925.9 1093.1,925.9 			"/>
		</g>
		<g>
			<polygon class="st1" points="1055.5,1088.5 740.3,1088.5 740.3,1086.8 1054.8,1086.8 1068.9,1072.8 1068.9,928.9 1070.5,928.9 
				1070.5,1073.5 			"/>
		</g>
		<g>
			<polygon class="st1" points="151.7,1093.2 134.1,1072.5 134.1,1026.7 121.4,1014.1 121.4,967.9 112.2,958.7 112.2,1033.7 
				124.8,1047 124.8,1052.2 112.2,1038.8 112.2,1055.8 124.8,1069.2 124.8,1074.3 112.2,1060.9 112.2,1077.9 124.8,1091.3 
				124.8,1096.4 112.2,1083.1 112.2,1092.3 124.7,1104.7 176,1104.7 187.5,1093.2 			"/>
		</g>
		<g>
			<polygon class="st1" points="1087.6,358.6 1068.1,339.1 1068.1,150.4 1045.6,128 740.3,128 740.3,126.3 1046.3,126.3 
				1069.7,149.7 1069.7,338.4 1088.8,357.4 			"/>
		</g>
		<g>
			<polygon class="st1" points="1090,329.4 1076.9,316.2 1076.9,262.2 1068.3,253.6 1069.5,252.5 1078.5,261.5 1078.5,315.5 
				1091.2,328.2 			"/>
		</g>
		<g>
			<polygon class="st1" points="1014.9,1087.7 1023.8,1096.6 1064,1096.6 1081.4,1079.1 1081.4,1057.4 1069.8,1045.7 1069.7,1073.2 
				1055.2,1087.7 			"/>
		</g>
		<g>
			<g>
				<rect x="605.7" y="103.5" class="st1" width="49.8" height="4.1"/>
			</g>
			<g>
				<rect x="605.7" y="109.4" class="st1" width="49.8" height="11"/>
			</g>
		</g>
		<g>
			<g>
				<polygon class="st1" points="738.1,107.6 742.2,103.5 663.2,103.5 663.2,107.6 				"/>
			</g>
			<g>
				<polygon class="st1" points="663.2,109.4 663.2,120.4 725.3,120.4 736.3,109.4 				"/>
			</g>
		</g>
		<g>
			<g>
				<rect x="548.2" y="109.4" class="st1" width="49.8" height="11"/>
			</g>
			<g>
				<rect x="548.2" y="103.5" class="st1" width="49.8" height="4.1"/>
			</g>
		</g>
		<g>
			<g>
				<polygon class="st1" points="540.5,107.6 540.5,103.5 461.5,103.5 464.8,107.6 				"/>
			</g>
			<g>
				<polygon class="st1" points="466.3,109.4 475.3,120.4 540.5,120.4 540.5,109.4 				"/>
			</g>
		</g>
		<g>
			<polygon class="st1" points="851.6,1104.5 838.5,1104.5 820.4,1090.4 833.5,1090.4 			"/>
		</g>
		<g>
			<polygon class="st1" points="873.9,1104.5 860.8,1104.5 842.7,1090.4 855.9,1090.4 			"/>
		</g>
		<g>
			<polygon class="st1" points="896.3,1104.5 883.1,1104.5 865,1090.4 878.2,1090.4 			"/>
		</g>
		<g>
			<polygon class="st1" points="345.5,1104.5 358.6,1104.5 376.7,1090.4 363.6,1090.4 			"/>
		</g>
		<g>
			<polygon class="st1" points="323.2,1104.5 336.3,1104.5 354.4,1090.4 341.3,1090.4 			"/>
		</g>
		<g>
			<polygon class="st1" points="300.9,1104.5 314,1104.5 332.1,1090.4 318.9,1090.4 			"/>
		</g>
		<g>
			<rect x="448.2" y="1096.7" class="st1" width="297.2" height="3.6"/>
		</g>
		<g>
			<rect x="448.2" y="1103.1" class="st1" width="297.2" height="3.6"/>
		</g>
		<g>
			<polygon class="st1" points="126.4,922.3 124.8,922.3 124.8,849.4 137.6,836.6 137.6,372.3 120.6,355.3 121.8,354.1 139.2,371.6 
				139.2,837.3 126.4,850.1 			"/>
		</g>
		<g>
			<polygon class="st1" points="1048.1,1093.2 1046.4,1093.2 1046.4,1084.9 1060.6,1070.8 1060.6,940.5 1071,925.9 1072.4,926.9 
				1062.2,941 1062.2,1071.5 1048.1,1085.6 			"/>
		</g>
		<g>
			<polygon class="st1" points="891.1,104.1 890,102.9 900.2,93.5 954.5,93.5 954.5,95.2 900.8,95.2 			"/>
		</g>
		<g>
			<polygon class="st1" points="360.8,106.1 351.4,96.8 244.3,96.8 222.8,75.3 144.9,75.3 126.8,93.5 125.6,92.3 144.2,73.7 
				223.5,73.7 245,95.2 352.1,95.2 361.9,105 			"/>
		</g>
	</g>
</g>
</svg>
