<?xml version="1.0" encoding="utf-8"?>
<!-- Generator: Adobe Illustrator 24.1.1, SVG Export Plug-In . SVG Version: 6.00 Build 0)  -->
<svg fill="white" version="1.1" id="Layer_1" xmlns="http://www.w3.org/2000/svg" x="0px" y="0px"
	 viewBox="0 0 64 64" style="enable-background:new 0 0 64 64;" xml:space="preserve">
<g>
	<path d="M59.8,37.7l-15.6-9c-0.6-0.4-1.4,0.1-1.4,0.8v3.1c0,0.5-0.4,0.9-0.9,0.9H24.7c-0.5,0-0.9,0.4-0.9,0.9v8
		c0,0.5,0.4,0.9,0.9,0.9h17.2c0.5,0,0.9,0.4,0.9,0.9v3.3c0,0.7,0.8,1.1,1.4,0.8l15.6-9C60.4,38.9,60.4,38,59.8,37.7z"/>
	<path d="M4.2,26.3l15.6,9c0.6,0.4,1.4-0.1,1.4-0.8v-3.1c0-0.5,0.4-0.9,0.9-0.9h17.2c0.5,0,0.9-0.4,0.9-0.9v-8
		c0-0.5-0.4-0.9-0.9-0.9H22.1c-0.5,0-0.9-0.4-0.9-0.9v-3.3c0-0.7-0.8-1.1-1.4-0.8l-15.6,9C3.6,25.1,3.6,26,4.2,26.3z"/>
</g>
</svg>
