<svg version="1.0" xmlns="http://www.w3.org/2000/svg"
 width="512.000000pt" height="512.000000pt" viewBox="0 0 512.000000 512.000000"
 preserveAspectRatio="xMidYMid meet">

<g transform="translate(0.000000,512.000000) scale(0.100000,-0.100000)"
fill="#67abd4" stroke="none">
<path d="M1829 4123 c-749 -594 -865 -690 -851 -701 22 -17 1686 -1010 1706
-1018 14 -6 16 26 16 329 l0 334 38 7 c20 3 85 6 143 6 240 0 456 -94 626
-273 88 -93 153 -202 195 -327 31 -91 32 -102 32 -255 1 -186 -10 -238 -79
-382 -112 -232 -312 -394 -572 -465 -102 -27 -296 -30 -397 -5 -260 65 -468
224 -578 441 -58 114 -174 214 -299 257 -85 29 -227 31 -317 5 -117 -35 -232
-126 -299 -238 -42 -69 -77 -204 -70 -272 2 -28 0 -58 -6 -68 -22 -34 133
-308 271 -479 77 -95 239 -251 334 -321 377 -278 812 -406 1283 -377 460 28
891 224 1220 553 182 182 312 373 410 602 307 716 141 1543 -421 2097 -367
362 -856 557 -1371 545 l-143 -3 -2 348 -3 349 -866 -689z"/>
</g>
</svg>
