<?xml version="1.0" encoding="utf-8"?>
<!-- Generator: Adobe Illustrator 26.0.1, SVG Export Plug-In . SVG Version: 6.00 Build 0)  -->
<svg version="1.1" id="Layer_1" xmlns="http://www.w3.org/2000/svg" xmlns:xlink="http://www.w3.org/1999/xlink" x="0px" y="0px"
	 viewBox="0 0 700 900" style="enable-background:new 0 0 900 900;" xml:space="preserve">
<path d="M96.4,369.8l233.8,233.8c5.3,5.3,12.3,8.2,19.8,8.2s14.5-2.9,19.8-8.2l233.8-233.8c10.9-10.9,10.9-28.7,0-39.6L369.8,96.4
	c-5.3-5.3-12.3-8.2-19.8-8.2s-14.5,2.9-19.8,8.2L96.4,330.2C85.4,341.1,85.4,358.9,96.4,369.8L96.4,369.8z M354,587.8
	c-1.4,1.4-3.1,1.6-4,1.6s-2.5-0.2-4-1.6l-109-109l38.1-38.1c20.3,16.8,46.4,26.9,74.8,26.9s54.5-10.1,74.8-26.9l38.1,38.1L354,587.8
	z M587.8,354l-109,109l-38.1-38.1c16.8-20.3,26.9-46.4,26.9-74.8s-10.1-54.5-26.9-74.8l38.1-38.1l109,109
	C590,348.2,590,351.8,587.8,354L587.8,354z M346,112.2c1.4-1.4,3.1-1.6,4-1.6s2.5,0.2,4,1.6l109,109l-38.1,38.1
	c-20.3-16.8-46.4-26.9-74.8-26.9s-54.5,10.1-74.8,26.9L237,221.2L346,112.2z M112.2,346l109-109l38.1,38.1
	c-16.8,20.3-26.9,46.4-26.9,74.8s10.1,54.5,26.9,74.8L221.2,463l-109-109C110,351.8,110,348.2,112.2,346L112.2,346z"/>
</svg>
