<?xml version="1.0" encoding="utf-8"?>
<!-- Generator: Adobe Illustrator 16.0.0, SVG Export Plug-In . SVG Version: 6.00 Build 0)  -->
<!DOCTYPE svg PUBLIC "-//W3C//DTD SVG 1.0//EN" "http://www.w3.org/TR/2001/REC-SVG-20010904/DTD/svg10.dtd">
<svg version="1.0" id="Layer_1" xmlns="http://www.w3.org/2000/svg" x="0px" y="0px"
     fill="#FFF" width="100px" height="100px" viewBox="0 0 100 100" enable-background="new 0 0 100 100"
     xml:space="preserve">
<path d="M50,10c-22.093,0-40,17.91-40,40c0,14.606,3.097,28.249,6.667,40h66.667C86.904,78.249,90,64.606,90,50
	C90,27.91,72.093,10,50,10z M78.33,83.333H50v-10h-6.667v10h-6.667v-10H30v10h-8.329C18.265,71.032,16.667,60.339,16.667,50
	c0-18.382,14.953-33.333,33.333-33.333c6.68,0,12.891,1.992,18.112,5.388l-21.7,18.213c-1.841-1.218-4.041-1.934-6.413-1.934
	c-6.442,0-11.667,5.225-11.667,11.667c0,6.445,5.225,11.667,11.667,11.667c3.102,0,5.905-1.23,7.992-3.203l31.933,18.44
	C79.427,79.017,78.942,81.123,78.33,83.333z M50.703,45.371l12.396-10.404C67.305,38.633,70,43.991,70,50
	c0,4.212-0.384,8.486-1.003,12.894L51.325,52.688c0.205-0.865,0.342-1.761,0.342-2.688C51.667,48.353,51.318,46.791,50.703,45.371z
	 M45,50c0,2.761-2.24,5-5,5s-5-2.239-5-5c0-2.76,2.24-5,5-5S45,47.24,45,50z M81.354,70.029l-6.107-3.525
	c0.938-5.723,1.42-11.159,1.42-16.504c0-7.633-3.256-14.496-8.415-19.359l5.163-4.333c6.116,6.048,9.918,14.43,9.918,23.691
	C83.333,56.423,82.637,63.034,81.354,70.029z"/>
</svg>
