<svg fill="#FFF" id="Layer_1" data-name="Layer 1" xmlns="http://www.w3.org/2000/svg" viewBox="0 0 48 48">
    <title>1. Gold</title>
    <path d="M16.83,43.36H2.5a1,1,0,0,1-.84-.46,1,1,0,0,1-.07-1l3.58-7.85a1,1,0,0,1,.91-.59h7.17a1,1,0,0,1,.91.59l3.58,7.85a1,1,0,0,1-.07,1A1,1,0,0,1,16.83,43.36Zm-12.78-2H15.28L12.6,35.5H6.72Z"/>
    <path d="M31.17,43.36H16.83A1,1,0,0,1,16,42.9a1,1,0,0,1-.07-1l3.58-7.85a1,1,0,0,1,.91-.59h7.18a1,1,0,0,1,.91.59l3.58,7.85a1,1,0,0,1-.07,1A1,1,0,0,1,31.17,43.36Zm-12.78-2H29.61L26.94,35.5H21.06Z"/>
    <path d="M45.5,43.36H31.17a1,1,0,0,1-.85-.46,1,1,0,0,1-.06-1l3.58-7.85a1,1,0,0,1,.91-.59h7.17a1,1,0,0,1,.91.59l3.58,7.85a1,1,0,0,1-.07,1A1,1,0,0,1,45.5,43.36Zm-12.78-2H43.94L41.27,35.5H35.39Z"/>
    <path d="M24,35.5H9.66a1,1,0,0,1-.91-1.41l3.59-7.86a1,1,0,0,1,.91-.58h7.16a1,1,0,0,1,.91.58l3.59,7.86a1,1,0,0,1-.07.95A1,1,0,0,1,24,35.5Zm-12.78-2H22.44l-2.67-5.85H13.89Z"/>
    <path d="M38.33,35.5H24a1,1,0,0,1-.84-.46,1,1,0,0,1-.07-.95l3.59-7.86a1,1,0,0,1,.91-.58h7.16a1,1,0,0,1,.91.58l3.58,7.86a1,1,0,0,1-.07.95A1,1,0,0,1,38.33,35.5Zm-12.78-2H36.78l-2.67-5.85H28.23Z"/>
    <path d="M31.14,27.66H16.8a1,1,0,0,1-.91-1.41l3.59-7.85a1,1,0,0,1,.91-.59h7.16a1,1,0,0,1,.91.59l3.59,7.85a1,1,0,0,1-.91,1.41Zm-12.78-2H29.58l-2.67-5.85H21Z"/>
    <path d="M24,13.32a1,1,0,0,1-1-1V5.64a1,1,0,0,1,2,0v6.68A1,1,0,0,1,24,13.32Z"/>
    <path d="M16.62,16.37a1,1,0,0,1-.7-.3l-4.73-4.72a1,1,0,0,1,0-1.41,1,1,0,0,1,1.42,0l4.72,4.72a1,1,0,0,1-.71,1.71Z"/>
    <path d="M13.58,23.73H6.9a1,1,0,0,1,0-2h6.68a1,1,0,1,1,0,2Z"/>
    <path d="M31.35,16.37a1,1,0,0,1-.71-.3,1,1,0,0,1,0-1.41l4.72-4.72a1,1,0,0,1,1.42,0,1,1,0,0,1,0,1.41l-4.73,4.72A1,1,0,0,1,31.35,16.37Z"/>
    <path d="M41.07,23.73H34.4a1,1,0,0,1,0-2h6.67a1,1,0,0,1,0,2Z"/>
</svg>