<?xml version="1.0" encoding="utf-8"?>
<!-- Generator: Adobe Illustrator 16.0.0, SVG Export Plug-In . SVG Version: 6.00 Build 0)  -->
<!DOCTYPE svg PUBLIC "-//W3C//DTD SVG 1.0//EN" "http://www.w3.org/TR/2001/REC-SVG-20010904/DTD/svg10.dtd">
<svg version="1.0" id="Layer_1" xmlns="http://www.w3.org/2000/svg" x="0px" y="0px"
     fill="#FFF" width="100px" height="100px" viewBox="0 0 100 100" enable-background="new 0 0 100 100"
     xml:space="preserve">
<path d="M83.333,83.334v-6.667c0-1.833-1.061-4.395-2.356-5.69l-3.376-3.375C79.104,65.443,80,62.829,80,60L58.945,17.38
	c-4.922-9.84-12.969-9.84-17.889,0L20,60c0,2.829,0.895,5.443,2.399,7.602l-3.375,3.375c-1.295,1.296-2.357,3.857-2.357,5.69v6.667
	H10V90h20v-6.666h-6.667v-6.667c0.032-0.179,0.299-0.827,0.488-1.067l3.672-3.666c1.771,0.869,3.733,1.4,5.84,1.4h13.333v10H40V90
	h20v-6.666h-6.667v-10h13.334c2.105,0,4.068-0.531,5.84-1.4l3.672,3.666c0.188,0.24,0.455,0.889,0.488,1.067v6.667H70V90h20v-6.666
	H83.333z M69.271,53.334H30.729l9.881-20h18.781L69.271,53.334z M47.018,20.362c1.433-2.865,2.741-3.646,2.95-3.698
	c0.273,0.052,1.582,0.833,3.001,3.669l3.132,6.334H43.905L47.018,20.362z M33.333,66.667c-3.234,0-5.933-2.317-6.537-5.374
	L27.435,60h45.13l0.638,1.293c-0.605,3.057-3.304,5.374-6.536,5.374H33.333z"/>
<circle cx="50" cy="43.333" r="5.833"/>
</svg>
