<?xml version="1.0" encoding="utf-8"?>
<!-- Generator: Adobe Illustrator 16.0.0, SVG Export Plug-In . SVG Version: 6.00 Build 0)  -->
<!DOCTYPE svg PUBLIC "-//W3C//DTD SVG 1.0//EN" "http://www.w3.org/TR/2001/REC-SVG-20010904/DTD/svg10.dtd">
<svg version="1.0" id="Layer_1" xmlns="http://www.w3.org/2000/svg" x="0px" y="0px"
     fill="#FFF" width="100px" height="100px" viewBox="0 0 100 100" enable-background="new 0 0 100 100"
     xml:space="preserve">
<path d="M85,26.667h-5v-8.333C80,16.5,78.499,15,76.667,15c-1.833,0-3.334,1.5-3.334,3.333v8.333h-5V15
	c0-1.833-1.5-3.333-3.333-3.333S61.667,13.167,61.667,15v11.667h-5V10H30c-11.043,0-20,8.952-20,20
	c0,8.037,4.752,14.948,11.59,18.125L11.139,76.868C10.513,78.591,10,81.501,10,83.333V90h30v-6.667l-8.856-2.952l6.198-17.048h9.324
	c3.666,0,6.667-3.001,6.667-6.666V50h3.334V33.333h5V45c0,1.833,1.5,3.333,3.333,3.333s3.333-1.501,3.333-3.333V33.333h5v8.333
	c0,1.833,1.501,3.333,3.334,3.333C78.499,45,80,43.5,80,41.667v-8.333h5l5,3.333V23.333L85,26.667z M22.977,83.333h-6.311
	c0-1.048,0.379-3.199,0.737-4.186l10.635-29.248C28.685,49.964,29.337,50,30,50h5.098L22.977,83.333z M48.333,56.667
	c0,0.904-0.762,1.666-1.667,1.666H39.16L42.191,50h6.143V56.667z M50,43.333H30c-7.352,0-13.333-5.983-13.333-13.333
	c0-7.354,5.981-13.333,13.333-13.333h6.667v10h6.667v-10H50V43.333z"/>
<circle cx="40" cy="35" r="3.333"/>
</svg>
